<svg xmlns="http://www.w3.org/2000/svg" cached="false" export-id="fc0f773728a043a393c29889f9823d13" project-id="8865b765d2e34bf4a3738754b24e3010" shape-rendering="geometricPrecision" text-rendering="geometricPrecision" viewBox="0 0 123 261">
  <path fill="none" stroke="#fff" stroke-dasharray="592.2" stroke-dashoffset="-592" stroke-linecap="round" stroke-linejoin="round" stroke-width="5" d="m42 258.25-21-25 25-10-20.128 10c46.442 23.65 89.452-.462 93.844-45.69 4.782-31.25-22.239-72.984-51.007-85.364C41.064 89.228 10.397 104.436 21 130.5c9.22 22.664 47.71 26.336 55.5-23.75 5.656-42.39-42.942-87.99-62.95-95.99"/>
  <g transform="translate(60.976 234.782)scale(.32368)">
    <rect width="175" height="61.25" fill="#112346" opacity=".2" rx="28" ry="28" transform="translate(-8.375 -5.25)"/>
    <path fill="#fff" fill-rule="evenodd" d="M100.296 8.841h1.861v8.057h-1.861zm.938-1.328q-.506 0-.849-.317-.342-.331-.342-.814c0-.483.114-.589.342-.8q.343-.332.849-.332c.506 0 .62.106.849.317a.98.98 0 0 1 .342.77q0 .497-.342.844-.328.333-.85.332m17.508 4.768v4.617h-1.862v-4.376q0-1.056-.49-1.584-.492-.543-1.4-.543-1.028 0-1.623.633-.596.619-.596 1.796v4.074h-1.86V5.702h1.86v4.074a2.96 2.96 0 0 1 1.132-.754 4.1 4.1 0 0 1 1.518-.272q1.504 0 2.412.89.909.891.909 2.64m-11.15 4.724q-1.31 0-2.025-.694-.714-.695-.714-2.022V10.41h-1.31V8.903h1.31V7.062h1.86v1.84h2.13v1.51h-2.13v3.832q0 .588.284.905.282.302.819.302.624 0 1.042-.332l.52 1.343a2.2 2.2 0 0 1-.803.407q-.462.136-.983.136m-13.295-.106-2.055-5.552-2.084 5.552H88.37l-2.918-8.057h1.757l2.099 5.945 2.188-5.945h1.564l2.144 5.975 2.159-5.975h1.652l-2.933 8.057zm-13.585-3.985q0 .196-.03.558h-6.238q.164.891.848 1.419.7.513 1.727.513 1.31 0 2.16-.876l.997 1.162q-.537.65-1.355.981c-.818.331-1.161.332-1.846.332q-1.31 0-2.308-.528a3.84 3.84 0 0 1-1.548-1.464q-.537-.95-.537-2.142 0-1.177.522-2.113.535-.95 1.474-1.478c.939-.528 1.33-.528 2.114-.528q1.161 0 2.07.528a3.54 3.54 0 0 1 1.429 1.463q.52.936.52 2.173m-4.02-2.655q-.894 0-1.519.543-.61.528-.744 1.418h4.511q-.12-.875-.73-1.418t-1.518-.543m-7.676 6.639v-1.041q-.461.572-1.146.86a3.75 3.75 0 0 1-1.489.286q-1.146 0-2.07-.513a3.7 3.7 0 0 1-1.429-1.448q-.52-.95-.52-2.173c0-1.223.173-1.534.52-2.158a3.7 3.7 0 0 1 1.43-1.448q.923-.513 2.07-.513.788 0 1.443.272c.655.272.81.452 1.117.814V5.702h1.861v11.196zm-.357-2.701q.313-.573.313-1.328c0-.755-.105-.945-.313-1.328a2.17 2.17 0 0 0-.848-.875 2.3 2.3 0 0 0-1.207-.317q-.669 0-1.206.317-.536.302-.848.875c-.312.573-.313.825-.313 1.328s.104.946.313 1.328.491.679.848.89q.537.302 1.206.302.67 0 1.206-.302.536-.317.85-.89M56.937 8.75q1.757 0 2.68.86.938.845.938 2.565v4.722h-1.757v-.98a2.2 2.2 0 0 1-.983.814q-.626.272-1.518.272c-.892 0-1.117-.1-1.564-.302a2.55 2.55 0 0 1-1.042-.86 2.27 2.27 0 0 1-.357-1.252q0-1.087.789-1.735.804-.664 2.516-.664h2.055v-.12q0-.846-.507-1.298-.49-.453-1.473-.453-.67 0-1.325.211-.641.21-1.087.589l-.73-1.373q.625-.483 1.504-.74c.879-.257 1.206-.256 1.861-.256m-.253 6.88q.699 0 1.236-.317.55-.332.774-.935v-.936h-1.921q-1.608 0-1.608 1.071 0 .513.402.815c.402.302.64.302 1.117.302m-10.691.06h-.864l-3.424-5.703v6.91h-1.847V6.337h1.594l4.139 7 4.064-7h1.593l.015 10.562h-1.831l-.015-7.001zm63.34 13.65v15.15h-3.371v-1.962a5.5 5.5 0 0 1-2.172 1.617 7.4 7.4 0 0 1-2.853.54 8.04 8.04 0 0 1-3.957-.963 6.86 6.86 0 0 1-2.7-2.7 9 9 0 0 1 0-8.16 6.9 6.9 0 0 1 2.7-2.7 8.1 8.1 0 0 1 3.957-.963 7 7 0 0 1 2.7.513c.817.335 1.55.847 2.145 1.5v-.762a1.08 1.08 0 0 1 1.08-1.08zm-4.766 11.01a5.26 5.26 0 0 0 0-6.87 4.64 4.64 0 0 0-6.46 0 5.3 5.3 0 0 0 0 6.87 4.3 4.3 0 0 0 3.223 1.308 4.34 4.34 0 0 0 3.237-1.302zm17.94 3.324a4.2 4.2 0 0 1-1.524.762 7 7 0 0 1-1.887.255 5.36 5.36 0 0 1-3.864-1.308 5.02 5.02 0 0 1-1.35-3.804v-13.59h2.469a1.08 1.08 0 0 1 1.08 1.08v2.379h4.047V32.3h-4.047v7.2a2.36 2.36 0 0 0 .552 1.692c.406.41.968.628 1.545.597q.34.001.675-.054c.81-.17 1.625.261 1.94 1.026zm5.079.027a7.24 7.24 0 0 1-2.88-2.766 8.28 8.28 0 0 1 0-8.016 7.3 7.3 0 0 1 2.88-2.751 9.2 9.2 0 0 1 8.319 0 7.3 7.3 0 0 1 2.88 2.75 8.28 8.28 0 0 1 0 8.017 7.24 7.24 0 0 1-2.88 2.766 9.2 9.2 0 0 1-8.32 0m7.392-3.37a5.26 5.26 0 0 0 0-6.87 4.64 4.64 0 0 0-6.46 0 5.3 5.3 0 0 0 0 6.87 4.3 4.3 0 0 0 3.223 1.309 4.34 4.34 0 0 0 3.237-1.281zM152 29.172v3.373a4.5 4.5 0 0 0-.822-.087 4.3 4.3 0 0 0-3.222 1.2 4.8 4.8 0 0 0-1.167 3.48v7.353h-3.552V29.34h2.298a1.08 1.08 0 0 1 1.08 1.08v1.134q1.521-2.382 5.385-2.382M44.978 44.215c-1-.245-1.95-.658-2.811-1.221l.62-1.233a1.605 1.605 0 0 1 2.023-.768q.561.232 1.146.399a10.2 10.2 0 0 0 2.826.41q3.177 0 3.183-1.67a1.12 1.12 0 0 0-.81-1.107 14 14 0 0 0-2.595-.6 21 21 0 0 1-3.054-.675 4.7 4.7 0 0 1-2.022-1.296 3.6 3.6 0 0 1-.864-2.568 4.05 4.05 0 0 1 1.8-3.453 8.2 8.2 0 0 1 4.869-1.296c1.054 0 2.104.119 3.132.354a8.8 8.8 0 0 1 2.568.978l-.675 1.296a1.605 1.605 0 0 1-1.983.795 8.8 8.8 0 0 0-3.075-.534 4.8 4.8 0 0 0-2.373.47 1.4 1.4 0 0 0-.81 1.234c-.01.547.341 1.036.864 1.2.874.316 1.78.542 2.7.675 1.008.151 2.004.377 2.979.675.77.234 1.467.664 2.022 1.248.596.692.896 1.59.837 2.502.02 1.38-.68 2.67-1.848 3.405a8.7 8.7 0 0 1-5.022 1.28 13.6 13.6 0 0 1-3.627-.5M89.86 29.34v12.858q0 8.004-8.172 8.004a15.2 15.2 0 0 1-4.146-.552 8.8 8.8 0 0 1-3.237-1.605l1.026-1.713a1.053 1.053 0 0 1 1.446-.342 8.7 8.7 0 0 0 1.632.714 9.9 9.9 0 0 0 3.084.486q2.496 0 3.66-1.134a4.65 4.65 0 0 0 1.167-3.465v-.795a5.84 5.84 0 0 1-2.211 1.5 7.8 7.8 0 0 1-2.865.513 8.2 8.2 0 0 1-3.9-.924 6.9 6.9 0 0 1-2.757-2.595 7.3 7.3 0 0 1-1.005-3.831 7.2 7.2 0 0 1 1.005-3.816 6.86 6.86 0 0 1 2.75-2.568 8.3 8.3 0 0 1 3.9-.9 8 8 0 0 1 3 .54c.882.345 1.66.911 2.26 1.644v-.936a1.08 1.08 0 0 1 1.08-1.08zm-4.782 10.263a4.1 4.1 0 0 0 1.299-3.135 4.05 4.05 0 0 0-1.296-3.096 5.226 5.226 0 0 0-6.642 0 4.05 4.05 0 0 0-1.287 3.096 4.1 4.1 0 0 0 1.287 3.135 5.18 5.18 0 0 0 6.639 0M73.022 29.325 67.13 43.068a2.35 2.35 0 0 1-2.151 1.422h-1.902l5.763-13.404.3-.675a1.78 1.78 0 0 1 1.638-1.071zM62.237 42.588l-5.89-13.236h2.512a1.78 1.78 0 0 1 1.644 1.092l3.492 8.046z" clip-rule="evenodd" opacity=".8"/>
    <g mask="url(#a)" opacity=".8" transform="matrix(.3 0 0 .3 -18.122 -25.906)">
      <path fill="#fff" d="M129.5 243.584c-8.76 2.18-20.08 1.79-37.33-19.63-2.358-2.928-4.382-6.363-5.934-10.028a30.8 30.8 0 0 0 9.554 1.508c17.032 0 30.84-13.807 30.84-30.84a30.7 30.7 0 0 0-3.854-14.94c22.541-3.147 48.247-1.186 56.014 6.2 12.32 11.73-14.11 59.03-49.29 67.73"/>
      <mask id="a" width="400%" height="400%" x="-150%" y="-150%" mask-type="alpha">
        <path fill="#fff" stroke-width="0" d="M78.375 207.04c0-31.46 25.503-56.964 56.963-56.964s56.963 25.503 56.963 56.963-25.503 56.964-56.963 56.964-56.963-25.504-56.963-56.964m89.235-4.716a1.74 1.74 0 0 0-2-1.41h-.06a9.88 9.88 0 0 1-9-16.37 1.76 1.76 0 0 0 0-2.49l-.11-.1a31.5 31.5 0 0 0-9.11-5.45 1.76 1.76 0 0 0-2.29 1v.06a9.88 9.88 0 0 1-18.7-.18 1.76 1.76 0 0 0-2.2-1.18h-.11a32.6 32.6 0 0 0-9.03 5.12 1.76 1.76 0 0 0-.34 2.47l.1.12a9.88 9.88 0 0 1-9.57 16 1.76 1.76 0 0 0-2.11 1.33v.09a32.6 32.6 0 0 0 0 10.38 1.76 1.76 0 0 0 2 1.5h.11a9.88 9.88 0 0 1 9 16.37 1.76 1.76 0 0 0 0 2.49l.11.1a31.5 31.5 0 0 0 9.11 5.42 1.76 1.76 0 0 0 2.29-1v-.06a9.88 9.88 0 0 1 18.68.16 1.76 1.76 0 0 0 2.2 1.18h.11a32.6 32.6 0 0 0 9.13-5.19 1.76 1.76 0 0 0 .31-2.48l-.1-.12a9.88 9.88 0 0 1 9.47-16.21 1.74 1.74 0 0 0 2.11-1.26v-.09a32.6 32.6 0 0 0 0-10.2m-41.67 4.69a9.41 9.41 0 1 1 18.82 0 9.41 9.41 0 0 1-18.82 0"/>
      </mask>
    </g>
    <path fill="#fff" d="m17.248 31.792-1.092-.655a.99.99 0 0 1-.495-.86v-.6c0-.355.188-.684.495-.862l1.092-.654a.993.993 0 0 0 .37-1.356l-.523-.9a.993.993 0 0 0-1.359-.345l-1.104.654a.99.99 0 0 1-.993 0l-.51-.3a.99.99 0 0 1-.495-.86v-1.315a.993.993 0 0 0-.993-.993h-1.04a.993.993 0 0 0-.994.993v1.332a.99.99 0 0 1-.495.861l-.504.3a.99.99 0 0 1-.993 0l-1.098-.672a.993.993 0 0 0-1.368.372l-.522.9a.993.993 0 0 0 .357 1.36l1.095.669a.99.99 0 0 1 .495.86v.6a.99.99 0 0 1-.495.862l-1.083.654a.993.993 0 0 0-.36 1.356l.522.9a.993.993 0 0 0 1.356.36l1.098-.655a.99.99 0 0 1 .993 0l.504.3a.99.99 0 0 1 .495.861v1.101a.993.993 0 0 0 .993.993h1.038a.993.993 0 0 0 .993-.993v-1.13c0-.355.188-.684.495-.862l.51-.3a.99.99 0 0 1 .993 0l1.098.654a.993.993 0 0 0 1.356-.363l.522-.9a.993.993 0 0 0-.342-1.362Zm-6.147.272a2.1 2.1 0 1 1 2.1-2.1 2.1 2.1 0 0 1-2.1 2.1" opacity=".8"/>
  </g>
</svg>
